<svg width="379" height="281" viewBox="0 0 379 281" fill="none" xmlns="http://www.w3.org/2000/svg">
<g clip-path="url(#clip0_13_94)">
<path d="M351.75 216.13C351.51 216.13 351.39 216.253 351.39 216.5L351.38 258.19C351.38 258.896 351.023 259.25 350.31 259.25L325.5 259.26C324.847 259.26 324.52 259.59 324.52 260.25L324.51 280.3C324.51 280.68 324.323 280.87 323.95 280.87L163.07 280.88C162.924 280.88 162.784 280.821 162.681 280.716C162.578 280.611 162.52 280.468 162.52 280.32V238.38C162.52 237.946 162.303 237.73 161.87 237.73H1.45991C0.999912 237.73 0.766582 237.5 0.759915 237.04C0.713249 234.893 0.68658 232.85 0.679913 230.91C0.599913 169.223 0.603249 106.853 0.689916 43.7998C0.689916 43.4331 0.873244 43.2498 1.23991 43.2498H53.7499C53.9498 43.2498 54.1416 43.1711 54.2838 43.0308C54.426 42.8904 54.5073 42.6996 54.5099 42.4998L54.5199 21.9998C54.5199 21.6798 54.6799 21.5198 54.9999 21.5198L80.9999 21.5398C81.3666 21.5465 81.5499 21.3665 81.5499 20.9998L81.5299 0.629807C81.5299 0.24314 81.7266 0.0498047 82.1199 0.0498047H324.23C324.304 0.0498047 324.375 0.0803572 324.428 0.134743C324.48 0.189128 324.51 0.262893 324.51 0.339806C324.477 13.5398 324.493 26.7998 324.56 40.1198C324.567 40.9465 324.637 41.7798 324.77 42.6198C324.798 42.7956 324.888 42.9555 325.024 43.0709C325.16 43.1863 325.332 43.2497 325.51 43.2498L350.73 43.2598C350.852 43.2596 350.97 43.306 351.059 43.3896C351.148 43.4733 351.202 43.5878 351.21 43.7098C351.29 45.3298 351.333 46.8731 351.34 48.3398C351.433 82.4198 351.443 100.15 351.37 101.53C351.27 103.396 351.327 105.323 351.54 107.31C351.587 107.75 351.833 107.97 352.28 107.97H377.85C378.014 107.97 378.172 108.036 378.288 108.154C378.405 108.272 378.47 108.433 378.47 108.6L378.49 215.72C378.49 215.779 378.478 215.837 378.455 215.892C378.432 215.947 378.398 215.996 378.355 216.038C378.312 216.08 378.262 216.113 378.206 216.136C378.15 216.158 378.09 216.17 378.03 216.17L351.75 216.13ZM298.25 129.75L324.01 129.76C324.145 129.76 324.275 129.705 324.371 129.607C324.466 129.51 324.52 129.378 324.52 129.24L324.54 65.7698C324.54 65.5656 324.459 65.3697 324.314 65.2253C324.17 65.0809 323.974 64.9998 323.77 64.9998L297.76 65.0098C297.691 65.0098 297.625 64.9835 297.576 64.9366C297.527 64.8897 297.5 64.8261 297.5 64.7598L297.51 22.2398C297.51 21.8931 297.337 21.7198 296.99 21.7198L109.26 21.7298C109.058 21.7298 108.865 21.8099 108.723 21.9524C108.58 22.0949 108.5 22.2882 108.5 22.4898L108.51 42.7998C108.51 43.1731 108.323 43.3598 107.95 43.3598L82.2999 43.3198C81.8799 43.3198 81.6699 43.5298 81.6699 43.9498L81.6299 64.4498C81.6299 64.6036 81.5688 64.7512 81.46 64.8599C81.3513 64.9687 81.2037 65.0298 81.0499 65.0298L28.5399 64.9898C27.8932 64.9831 27.5699 65.3065 27.5699 65.9598L27.5499 215.47C27.5493 215.595 27.5959 215.717 27.6808 215.811C27.7656 215.905 27.8828 215.965 28.0099 215.98C29.1499 216.106 30.2932 216.17 31.4399 216.17C48.1599 216.143 64.8533 216.133 81.5199 216.14C81.5889 216.14 81.655 216.112 81.7038 216.064C81.7525 216.015 81.7799 215.949 81.7799 215.88L81.7399 195C81.7399 194.867 81.6883 194.74 81.5964 194.646C81.5045 194.552 81.3799 194.5 81.2499 194.5L55.2399 194.49C55.1756 194.49 55.1119 194.477 55.0524 194.452C54.993 194.427 54.9389 194.39 54.8934 194.343C54.8479 194.297 54.8118 194.242 54.7872 194.181C54.7626 194.12 54.7499 194.055 54.7499 193.99L54.7399 87.0198C54.7399 86.6998 54.9032 86.5398 55.2299 86.5398L80.9699 86.5298C81.1529 86.5298 81.3284 86.6025 81.4578 86.7319C81.5872 86.8613 81.6599 87.0368 81.6599 87.2198V193.96C81.6599 194.106 81.7179 194.246 81.821 194.349C81.9242 194.452 82.0641 194.51 82.2099 194.51L134.59 194.5C134.882 194.5 135.161 194.385 135.368 194.181C135.574 193.976 135.69 193.699 135.69 193.41L135.7 65.2798C135.7 65.2443 135.707 65.2092 135.72 65.1765C135.734 65.1437 135.754 65.114 135.779 65.0889C135.804 65.0638 135.834 65.0439 135.867 65.0304C135.899 65.0168 135.934 65.0098 135.97 65.0098L161.96 64.9998C162.146 64.9998 162.326 65.0743 162.458 65.2072C162.591 65.3401 162.667 65.5206 162.67 65.7098L162.7 194.02C162.7 194.147 162.649 194.269 162.559 194.359C162.469 194.449 162.347 194.5 162.22 194.5L136.58 194.49C136.331 194.49 136.092 194.588 135.915 194.762C135.739 194.937 135.64 195.173 135.64 195.42L135.69 215.49C135.693 215.663 135.763 215.828 135.887 215.95C136.01 216.072 136.177 216.14 136.35 216.14L162.1 216.13C162.18 216.13 162.259 216.114 162.333 216.083C162.407 216.053 162.475 216.008 162.531 215.951C162.588 215.894 162.633 215.827 162.663 215.753C162.694 215.679 162.71 215.6 162.71 215.52L162.68 195.11C162.68 194.703 162.88 194.5 163.28 194.5H215.95C216.25 194.5 216.413 194.35 216.44 194.05C216.633 191.796 216.723 189.02 216.71 185.72C216.583 147.54 216.55 107.506 216.61 65.6198C216.61 65.458 216.674 65.3029 216.789 65.1885C216.903 65.0741 217.058 65.0098 217.22 65.0098H243.03C243.098 65.0098 243.166 65.0233 243.229 65.0494C243.292 65.0755 243.349 65.1138 243.398 65.1621C243.446 65.2104 243.484 65.2677 243.51 65.3308C243.536 65.3939 243.55 65.4615 243.55 65.5298L243.54 194.16C243.54 194.258 243.579 194.352 243.648 194.421C243.718 194.491 243.812 194.53 243.91 194.53L297 194.51C297.34 194.51 297.51 194.34 297.51 194L297.49 130.5C297.49 130 297.743 129.75 298.25 129.75ZM351.42 130.32C351.42 130.166 351.359 130.018 351.25 129.91C351.141 129.801 350.994 129.74 350.84 129.74H325.08C324.926 129.74 324.779 129.801 324.67 129.91C324.561 130.018 324.5 130.166 324.5 130.32V193.94C324.5 194.016 324.515 194.091 324.544 194.162C324.573 194.232 324.616 194.296 324.67 194.35C324.724 194.404 324.788 194.446 324.858 194.476C324.928 194.505 325.004 194.52 325.08 194.52H350.84C350.916 194.52 350.991 194.505 351.062 194.476C351.132 194.446 351.196 194.404 351.25 194.35C351.304 194.296 351.347 194.232 351.376 194.162C351.405 194.091 351.42 194.016 351.42 193.94V130.32ZM297.49 238.16C297.49 238.101 297.502 238.042 297.524 237.988C297.547 237.933 297.58 237.883 297.622 237.842C297.663 237.8 297.713 237.767 297.768 237.744C297.822 237.721 297.881 237.71 297.94 237.71L324.09 237.75C324.149 237.75 324.208 237.738 324.262 237.716C324.317 237.693 324.366 237.66 324.408 237.618C324.45 237.576 324.483 237.527 324.506 237.472C324.528 237.417 324.54 237.359 324.54 237.3L324.56 216.59C324.56 216.47 324.512 216.356 324.428 216.272C324.344 216.187 324.229 216.14 324.11 216.14L216.96 216.11C216.841 216.11 216.726 216.157 216.642 216.242C216.557 216.326 216.51 216.44 216.51 216.56L216.54 237.25C216.54 237.309 216.528 237.367 216.506 237.422C216.483 237.477 216.45 237.526 216.408 237.568C216.366 237.61 216.317 237.643 216.262 237.666C216.208 237.688 216.149 237.7 216.09 237.7L189.94 237.68C189.821 237.68 189.706 237.727 189.622 237.812C189.537 237.896 189.49 238.01 189.49 238.13L189.5 258.85C189.5 258.969 189.547 259.084 189.632 259.168C189.716 259.252 189.831 259.3 189.95 259.3L297.08 259.28C297.199 259.28 297.314 259.232 297.398 259.148C297.482 259.064 297.53 258.949 297.53 258.83L297.49 238.16Z" fill="#2E2E2E"/>
<path d="M297.49 130.5L297.51 194C297.51 194.34 297.34 194.51 297 194.51L243.91 194.53C243.812 194.53 243.718 194.491 243.648 194.422C243.579 194.352 243.54 194.258 243.54 194.16L243.55 65.5302C243.55 65.4619 243.537 65.3943 243.51 65.3312C243.484 65.2681 243.446 65.2108 243.398 65.1625C243.349 65.1142 243.292 65.0759 243.229 65.0498C243.166 65.0237 243.098 65.0102 243.03 65.0102H217.22C217.058 65.0102 216.903 65.0745 216.789 65.1889C216.674 65.3033 216.61 65.4584 216.61 65.6202C216.55 107.507 216.583 147.54 216.71 185.72C216.723 189.02 216.633 191.797 216.44 194.05C216.413 194.35 216.25 194.5 215.95 194.5H163.28C162.88 194.5 162.68 194.704 162.68 195.11L162.71 215.52C162.71 215.6 162.694 215.68 162.664 215.754C162.633 215.828 162.588 215.895 162.531 215.952C162.475 216.008 162.407 216.053 162.333 216.084C162.259 216.114 162.18 216.13 162.1 216.13L136.35 216.14C136.177 216.14 136.01 216.072 135.887 215.95C135.763 215.829 135.693 215.664 135.69 215.49L135.64 195.42C135.64 195.174 135.739 194.937 135.915 194.763C136.092 194.588 136.331 194.49 136.58 194.49L162.22 194.5C162.347 194.5 162.469 194.45 162.559 194.36C162.649 194.27 162.7 194.148 162.7 194.02L162.67 65.7102C162.667 65.521 162.591 65.3405 162.459 65.2076C162.326 65.0747 162.147 65.0002 161.96 65.0002L135.97 65.0102C135.935 65.0102 135.899 65.0172 135.867 65.0308C135.834 65.0443 135.804 65.0642 135.779 65.0893C135.754 65.1144 135.734 65.1441 135.721 65.1769C135.707 65.2096 135.7 65.2448 135.7 65.2802L135.69 193.41C135.69 193.699 135.574 193.977 135.368 194.181C135.162 194.385 134.882 194.5 134.59 194.5L82.2101 194.51C82.0642 194.51 81.9243 194.452 81.8211 194.349C81.718 194.246 81.6601 194.106 81.6601 193.96V87.2202C81.6601 87.0372 81.5874 86.8617 81.458 86.7323C81.3286 86.6029 81.1531 86.5302 80.9701 86.5302L55.23 86.5402C54.9034 86.5402 54.7401 86.7002 54.7401 87.0202L54.7501 193.99C54.7501 194.056 54.7627 194.121 54.7873 194.182C54.812 194.242 54.8481 194.297 54.8936 194.344C54.9391 194.39 54.9931 194.427 55.0525 194.452C55.112 194.477 55.1757 194.49 55.2401 194.49L81.2501 194.5C81.38 194.5 81.5046 194.553 81.5965 194.647C81.6884 194.74 81.7401 194.868 81.7401 195L81.7801 215.88C81.7801 215.949 81.7527 216.015 81.7039 216.064C81.6551 216.113 81.589 216.14 81.5201 216.14C64.8534 216.134 48.1601 216.144 31.4401 216.17C30.2934 216.17 29.1501 216.107 28.0101 215.98C27.883 215.965 27.7658 215.905 27.6809 215.811C27.596 215.717 27.5494 215.596 27.5501 215.47L27.5701 65.9602C27.5701 65.3069 27.8934 64.9835 28.5401 64.9902L81.0501 65.0302C81.2039 65.0302 81.3514 64.9691 81.4602 64.8603C81.569 64.7516 81.6301 64.604 81.6301 64.4502L81.6701 43.9502C81.6701 43.5302 81.8801 43.3202 82.3001 43.3202L107.95 43.3602C108.323 43.3602 108.51 43.1736 108.51 42.8002L108.5 22.4902C108.5 22.2886 108.58 22.0953 108.723 21.9528C108.865 21.8103 109.058 21.7302 109.26 21.7302L296.99 21.7202C297.337 21.7202 297.51 21.8935 297.51 22.2402L297.5 64.7602C297.5 64.8265 297.527 64.8901 297.576 64.937C297.625 64.9839 297.691 65.0102 297.76 65.0102L323.77 65.0002C323.974 65.0002 324.17 65.0813 324.315 65.2257C324.459 65.3701 324.54 65.566 324.54 65.7702L324.52 129.24C324.52 129.378 324.466 129.51 324.371 129.608C324.275 129.705 324.145 129.76 324.01 129.76L298.25 129.75C297.743 129.75 297.49 130 297.49 130.5Z" fill="#CEF56C"/>
<path d="M350.84 129.74H325.08C324.76 129.74 324.5 130 324.5 130.32V193.94C324.5 194.261 324.76 194.52 325.08 194.52H350.84C351.16 194.52 351.42 194.261 351.42 193.94V130.32C351.42 130 351.16 129.74 350.84 129.74Z" fill="#CEF56C"/>
<path d="M297.49 238.16L297.53 258.83C297.53 258.949 297.483 259.064 297.398 259.148C297.314 259.232 297.199 259.28 297.08 259.28L189.95 259.3C189.831 259.3 189.716 259.252 189.632 259.168C189.547 259.084 189.5 258.969 189.5 258.85L189.49 238.13C189.49 238.011 189.537 237.896 189.622 237.812C189.706 237.727 189.821 237.68 189.94 237.68L216.09 237.7C216.149 237.7 216.208 237.688 216.262 237.666C216.317 237.643 216.366 237.61 216.408 237.568C216.45 237.526 216.483 237.477 216.506 237.422C216.528 237.367 216.54 237.309 216.54 237.25L216.51 216.56C216.51 216.441 216.557 216.326 216.642 216.242C216.726 216.157 216.841 216.11 216.96 216.11L324.11 216.14C324.229 216.14 324.344 216.187 324.428 216.272C324.513 216.356 324.56 216.471 324.56 216.59L324.54 237.3C324.54 237.359 324.528 237.417 324.506 237.472C324.483 237.527 324.45 237.576 324.408 237.618C324.366 237.66 324.317 237.693 324.262 237.716C324.208 237.738 324.149 237.75 324.09 237.75L297.94 237.71C297.881 237.71 297.822 237.722 297.768 237.744C297.713 237.767 297.664 237.8 297.622 237.842C297.58 237.883 297.547 237.933 297.524 237.988C297.502 238.042 297.49 238.101 297.49 238.16Z" fill="#CEF56C"/>
</g>
<defs>
<clipPath id="clip0_13_94">
<rect width="379" height="281" fill="white"/>
</clipPath>
</defs>
</svg>
