<svg width="296" height="295" viewBox="0 0 296 295" fill="none" xmlns="http://www.w3.org/2000/svg">
<path d="M176.29 0.0175001L187.64 0.147501C188.247 0.154168 188.55 0.464168 188.55 1.0775L188.57 18.7875C188.57 19.2342 188.793 19.4575 189.24 19.4575H193.12C193.25 19.4575 193.375 19.5091 193.466 19.601C193.558 19.6929 193.61 19.8175 193.61 19.9475L193.53 30.7675L194.09 47.7375C194.103 48.1442 194.313 48.3608 194.72 48.3875L197.27 48.5575C197.457 48.5677 197.632 48.6492 197.761 48.785C197.889 48.9208 197.96 49.1006 197.96 49.2875C198.093 60.6408 198.477 71.3075 199.11 81.2875C199.125 81.5448 199.241 81.7859 199.431 81.9596C199.622 82.1333 199.872 82.2258 200.13 82.2175C201.783 82.1642 202.77 82.9208 203.09 84.4875C203.497 86.4608 204.683 87.1208 206.65 86.4675C206.881 86.3896 207.09 86.2607 207.261 86.0907C207.433 85.9208 207.563 85.7144 207.64 85.4875C208.193 83.8742 209.293 82.7208 210.94 82.0275C211.524 81.781 212.009 81.3561 212.32 80.8175C213.89 78.1175 216.49 76.8775 218.44 74.5275C220.333 72.2475 222.397 70.0842 224.63 68.0375C225.93 66.8508 227.04 65.5742 227.96 64.2075C228.177 63.8924 228.465 63.6351 228.8 63.4575C230.48 62.5575 231.783 61.2942 232.71 59.6675C233.045 59.0749 233.589 58.6234 234.24 58.3975C235.92 57.7975 236.98 56.5675 237.42 54.7075C237.478 54.4564 237.6 54.2245 237.773 54.0337C237.946 53.8429 238.166 53.6996 238.41 53.6175L240.73 52.8175C240.988 52.7278 241.22 52.5787 241.41 52.3824C241.599 52.1861 241.74 51.9481 241.82 51.6875C242.36 49.9408 243.503 48.6442 245.25 47.7975C245.65 47.6108 245.977 47.3342 246.23 46.9675C247.09 45.7075 247.59 44.5375 248.97 43.6775C250.05 42.9975 250.933 42.1175 251.62 41.0375C252.41 39.7975 253.36 39.2475 254.46 38.3475C254.993 37.9142 255.657 37.1908 256.45 36.1775C257.55 34.7775 258.97 33.6875 260.71 32.9075L261.89 30.2075C261.958 30.0515 262.062 29.9128 262.194 29.8019C262.326 29.691 262.482 29.6109 262.65 29.5675C264.61 29.0875 265.94 27.8875 266.64 25.9675C266.763 25.6122 267.003 25.3118 267.32 25.1175C268.107 24.6175 268.867 24.1208 269.6 23.6275C270.81 22.8175 271.06 21.3975 271.94 20.3075C272.187 20.0083 272.519 19.792 272.89 19.6875C273.63 19.4808 274.31 19.1542 274.93 18.7075C275.237 18.4808 275.457 18.1875 275.59 17.8275L276.43 15.5975C276.493 15.4346 276.59 15.2875 276.714 15.1665C276.838 15.0456 276.987 14.9538 277.15 14.8975L279.63 14.0575C280.077 13.9042 280.33 13.5942 280.39 13.1275L280.65 10.9975C280.697 10.6108 280.913 10.3808 281.3 10.3075C284.093 9.7875 286.887 9.69083 289.68 10.0175C290.08 10.0642 290.27 10.2908 290.25 10.6975L289.81 18.6975C289.79 19.1508 289.557 19.3975 289.11 19.4375L286.84 19.6475C286.584 19.6721 286.345 19.7862 286.162 19.9703C285.98 20.1545 285.866 20.3974 285.84 20.6575L285.34 25.6375L284.96 28.0675C284.913 28.3661 284.755 28.636 284.518 28.8233C284.281 29.0105 283.981 29.1013 283.68 29.0775C283.093 29.0308 282.53 29.0875 281.99 29.2475C281.643 29.3542 281.433 29.5842 281.36 29.9375L280.4 34.9375C279.627 37.5575 278.703 38.8208 277.63 38.7275C276.663 39.4875 275.85 40.7775 275.19 42.5975C275.063 42.9508 274.837 43.2108 274.51 43.3775L272.41 44.4575C272.117 44.6042 271.927 44.8408 271.84 45.1675C271.307 47.1808 270.75 49.4075 270.17 51.8475C269.95 52.7675 269.11 53.2375 268.24 53.3475C267.833 53.4008 267.513 53.5975 267.28 53.9375C266.1 55.6775 265.67 59.7775 265.35 61.8175C265.326 61.9752 265.26 62.124 265.158 62.2488C265.056 62.3735 264.922 62.4697 264.77 62.5275L262.27 63.4975C261.95 63.6242 261.713 63.8442 261.56 64.1575C261.34 64.6042 261.217 65.0608 261.19 65.5275C260.41 66.8542 259.307 67.9608 257.88 68.8475C257.567 69.0475 257.357 69.3208 257.25 69.6675L255.31 75.9575C255.203 76.3175 255.003 76.6208 254.71 76.8675C253.62 77.7975 252.62 78.6975 252.15 80.1075C251.55 81.9208 250.883 83.6842 250.15 85.3975C249.935 85.8929 249.58 86.3109 249.13 86.5975C247.683 87.5308 246.613 88.8608 245.92 90.5875C245.73 91.0522 245.419 91.4565 245.02 91.7575C243.5 92.8908 242.523 94.5108 242.09 96.6175C241.57 99.1442 240.41 101.088 238.61 102.448C238.283 102.694 238.063 103.014 237.95 103.408L235.76 110.737C232.06 111.577 232.99 113.088 231.38 115.548C231.193 115.841 230.943 116.058 230.63 116.198C229.237 116.844 228.43 117.574 228.21 118.388C227.603 120.641 226.993 122.757 226.38 124.737C226.267 125.091 226.037 125.328 225.69 125.448L224.06 125.978C223.836 126.052 223.633 126.179 223.467 126.347C223.3 126.516 223.174 126.721 223.1 126.948C222.927 127.494 222.843 128.061 222.85 128.647C222.85 128.941 222.956 129.224 223.149 129.445C223.343 129.666 223.609 129.809 223.9 129.847L235.72 131.387C236.073 131.434 236.37 131.594 236.61 131.867C237.07 132.394 237.387 132.997 237.56 133.677C237.667 134.091 237.93 134.301 238.35 134.307C243.2 134.457 248.05 135.077 252.79 135.097C263.15 135.131 273.807 135.308 284.76 135.628C284.943 135.632 285.118 135.705 285.251 135.832C285.384 135.96 285.465 136.133 285.48 136.317L285.65 138.457C285.69 138.997 285.98 139.294 286.52 139.347L294.72 140.197C295.34 140.264 295.673 139.987 295.72 139.367L296 136.167V163.587L295.8 160.307C295.753 159.614 295.387 159.284 294.7 159.317L291.69 159.457C290.95 159.491 290.557 159.877 290.51 160.617L290.35 163.087C290.317 163.601 290.04 163.867 289.52 163.887C279.387 164.221 269.897 164.291 261.05 164.097C258.203 164.037 252.27 164.417 243.25 165.237C243.068 165.256 242.893 165.323 242.744 165.432C242.595 165.541 242.476 165.688 242.4 165.857L241.74 167.357C241.58 167.724 241.303 167.927 240.91 167.967L228.69 169.337C227.663 169.451 227.27 170.011 227.51 171.018C227.92 172.748 229.14 173.137 230.27 174.257C238.703 182.657 246.8 190.791 254.56 198.658C256.047 200.164 257.99 201.881 260.39 203.807C262.25 205.301 264.173 206.564 266.16 207.598C268.72 208.924 271.18 210.614 273.54 212.667C277.487 216.107 281.26 219.764 284.86 223.637C286.91 225.847 289.14 227.637 291.08 229.827C291.593 230.407 292.177 230.917 292.83 231.357C294.01 232.151 294.79 233.481 295.17 235.348C295.303 235.988 295.443 235.988 295.59 235.348L296 233.547V263.698L295.18 257.318C295.137 257.006 294.99 256.719 294.762 256.504C294.535 256.29 294.241 256.16 293.93 256.137C289.89 255.857 287.06 253.547 283.55 251.917C277.58 249.157 271.54 246.398 265.79 243.228C264.143 242.328 262.393 241.441 260.54 240.568C254.407 237.681 247.023 234.011 238.39 229.557C236.65 228.657 234.933 227.858 233.24 227.158C229.42 225.568 225.87 223.468 222.04 221.848C220.14 221.041 218.357 219.861 216.69 218.307C215.757 217.441 214.663 217.134 213.41 217.387C212.997 217.474 212.77 217.731 212.73 218.158C212.283 223.044 213.033 227.151 214.98 230.478C215.78 231.838 216.44 233.128 216.96 234.348C218.547 238.074 220.083 241.878 221.57 245.758C222.88 249.148 223.47 252.748 224.8 256.258C226 259.418 227.06 262.607 227.98 265.827C227.92 267.061 228.137 268.014 228.63 268.688C230.157 270.781 231.363 272.861 232.25 274.927C232.837 276.281 233.647 277.798 234.68 279.478C236.227 281.998 237.067 284.781 237.2 287.827L237.18 292.878C237.18 293.313 237.009 293.73 236.704 294.041C236.4 294.351 235.985 294.53 235.55 294.538C232.69 294.584 230.243 293.918 228.21 292.538L199.17 263.337C194.39 255.837 190.763 250.811 188.29 248.258C185.71 245.591 183.2 242.854 180.76 240.047C180.46 239.701 180.103 239.454 179.69 239.307C179.383 239.201 179.13 239.021 178.93 238.767C178.023 237.594 176.817 236.851 175.31 236.538C173.9 234.438 174.71 231.477 171.05 231.387C170.21 231.367 169.747 230.938 169.66 230.098L169.46 228.008C169.431 227.694 169.286 227.403 169.053 227.189C168.821 226.975 168.517 226.853 168.2 226.848L165.52 226.797C164.847 226.784 164.51 227.114 164.51 227.788L164.49 236.017C164.49 236.324 164.34 236.474 164.04 236.467L160.31 236.448C159.937 236.441 159.75 236.624 159.75 236.997V245.517C159.75 245.997 159.513 246.234 159.04 246.228L155.33 246.158C154.943 246.151 154.75 246.341 154.75 246.728V255.057C154.75 255.397 154.58 255.564 154.24 255.557H150.5C150.167 255.551 150 255.717 150 256.057V264.807C150 265.141 149.833 265.307 149.5 265.307H145.75C145.417 265.307 145.25 265.474 145.25 265.807V274.387C145.25 274.774 145.057 274.964 144.67 274.957L140.71 274.887C140.649 274.886 140.588 274.897 140.531 274.92C140.474 274.942 140.422 274.976 140.378 275.019C140.334 275.061 140.3 275.113 140.276 275.169C140.252 275.226 140.24 275.286 140.24 275.348L140.26 284.128C140.26 284.521 140.067 284.714 139.68 284.707L136.19 284.688C135.73 284.681 135.5 284.907 135.5 285.367V294.057C135.5 294.224 135.417 294.307 135.25 294.307L126.06 294.297C125.933 294.297 125.87 294.234 125.87 294.107L125.88 246.807C125.88 246.394 126.087 246.188 126.5 246.188H130.2C130.487 246.188 130.63 246.044 130.63 245.758V212.917C130.63 212.849 130.617 212.782 130.59 212.719C130.564 212.655 130.526 212.598 130.478 212.55C130.429 212.502 130.372 212.463 130.309 212.437C130.246 212.411 130.178 212.397 130.11 212.397L126.33 212.427C126.205 212.427 126.086 212.477 125.998 212.565C125.91 212.653 125.86 212.773 125.86 212.897V216.378C125.861 216.466 125.845 216.554 125.811 216.637C125.778 216.719 125.728 216.794 125.664 216.858C125.601 216.921 125.526 216.971 125.443 217.006C125.359 217.04 125.27 217.057 125.18 217.057H106.8C106.507 217.057 106.36 217.208 106.36 217.508L106.39 221.107C106.397 221.574 106.167 221.807 105.7 221.807H82.75C82.4167 221.807 82.25 221.974 82.25 222.307L82.26 226.297C82.26 226.43 82.2073 226.557 82.1136 226.651C82.0198 226.745 81.8926 226.797 81.76 226.797L63.63 226.818C63.2233 226.818 63.02 227.021 63.02 227.427L62.98 230.897C62.9774 231.047 62.9162 231.189 62.8096 231.294C62.7029 231.399 62.5595 231.458 62.41 231.457L39.28 231.587C38.9933 231.594 38.85 231.741 38.85 232.027V235.797C38.85 236.184 38.6533 236.378 38.26 236.378L19.72 236.467C19.6706 236.468 19.6216 236.477 19.5761 236.496C19.5305 236.515 19.4893 236.542 19.4548 236.577C19.4203 236.611 19.3932 236.652 19.3752 236.697C19.3572 236.742 19.3487 236.789 19.35 236.837L19.39 240.818C19.39 240.926 19.3479 241.031 19.2728 241.107C19.1978 241.184 19.0961 241.228 18.99 241.228H0V231.467L4.37 231.517C4.79 231.524 5 231.317 5 230.897V227.307C5 226.974 5.16667 226.807 5.5 226.807H14.25C14.5833 226.807 14.75 226.641 14.75 226.307V222.307C14.75 221.974 14.9167 221.807 15.25 221.807H23.59C23.7332 221.807 23.8706 221.751 23.9718 221.649C24.0731 221.548 24.13 221.411 24.13 221.267L24.14 217.487C24.14 217.201 24.2833 217.057 24.57 217.057H33.32C33.7 217.057 33.89 216.867 33.89 216.487L33.87 213.047C33.87 212.647 34.07 212.444 34.47 212.438L38.25 212.417C38.6567 212.417 38.8633 212.214 38.87 211.807L38.9 208.038C38.9 207.631 39.1067 207.427 39.52 207.427H47.75C48.1633 207.427 48.37 207.221 48.37 206.807V203.307C48.37 202.887 48.58 202.677 49 202.677L57.43 202.688C57.81 202.688 58 202.501 58 202.128V198.307C58 197.974 58.1667 197.807 58.5 197.807L62.5 197.817C62.8333 197.817 63 197.647 63 197.307V193.557C63 193.224 63.1667 193.057 63.5 193.057H72C72.3333 193.057 72.5 192.891 72.5 192.557L72.49 188.807C72.49 188.474 72.66 188.307 73 188.307H81.75C82.0833 188.307 82.25 188.141 82.25 187.807V183.807C82.25 183.474 82.4167 183.307 82.75 183.307H91.5C91.8333 183.307 92 183.141 92 182.807V179.237C92 178.857 92.19 178.667 92.57 178.667L96.29 178.717C96.412 178.717 96.529 178.67 96.6153 178.586C96.7015 178.501 96.75 178.387 96.75 178.268V174.247C96.75 173.867 96.9367 173.677 97.31 173.677L106.15 173.697C106.303 173.697 106.38 173.617 106.38 173.457L106.37 164.487C106.367 164.404 106.334 164.326 106.276 164.268C106.218 164.21 106.141 164.178 106.06 164.177L97.37 164.188C96.9567 164.188 96.75 163.977 96.75 163.557V159.807C96.75 159.474 96.5833 159.307 96.25 159.307H87.75C87.4167 159.307 87.25 159.141 87.25 158.807V155.188C87.25 155.02 87.1847 154.86 87.0684 154.742C86.9521 154.624 86.7944 154.557 86.63 154.557H82.75C82.6174 154.557 82.4902 154.505 82.3964 154.411C82.3027 154.317 82.25 154.19 82.25 154.057L82.26 150.057C82.26 149.992 82.2468 149.927 82.2212 149.866C82.1955 149.805 82.158 149.75 82.1106 149.704C82.0633 149.658 82.007 149.621 81.9452 149.596C81.8833 149.57 81.817 149.557 81.75 149.557H73C72.6667 149.557 72.5 149.391 72.5 149.057V145.438C72.5 145.27 72.4347 145.11 72.3184 144.992C72.2021 144.874 72.0444 144.807 71.88 144.807H63.5C63.1667 144.807 63 144.641 63 144.307V140.867C63 140.407 62.77 140.177 62.31 140.177H54.05C53.5967 140.177 53.37 139.951 53.37 139.497L53.38 135.807C53.38 135.387 53.17 135.177 52.75 135.177L44.01 135.188C43.9092 135.187 43.8126 135.149 43.7413 135.079C43.67 135.01 43.63 134.916 43.63 134.817V131.057C43.63 130.637 43.42 130.427 43 130.427L39.48 130.438C39.0533 130.438 38.8433 130.224 38.85 129.798L38.89 125.808C38.8913 125.755 38.8822 125.702 38.863 125.653C38.8439 125.604 38.8152 125.559 38.7787 125.522C38.7423 125.484 38.6987 125.455 38.6508 125.435C38.6029 125.415 38.5516 125.406 38.5 125.408L29.74 125.448C29.32 125.448 29.1133 125.237 29.12 124.817L29.14 121.257C29.14 120.957 28.9933 120.808 28.7 120.808H19.91C19.5233 120.808 19.3333 120.614 19.34 120.228L19.39 116.757C19.3967 116.291 19.1667 116.058 18.7 116.058H10.25C10.1835 116.057 10.1176 116.044 10.0563 116.019C9.995 115.994 9.93943 115.957 9.89287 115.91C9.8463 115.864 9.80969 115.809 9.78515 115.748C9.76062 115.687 9.74867 115.623 9.75 115.558L9.76 111.808C9.76 111.308 9.50667 111.058 9 111.058H5.5C5.16667 111.064 5 110.898 5 110.558V102.248C5 101.701 5.27 101.427 5.81 101.427L23.5 101.438C23.9133 101.438 24.12 101.644 24.12 102.058L24.13 105.628C24.1367 106.081 24.3667 106.308 24.82 106.308H52.71C53.1833 106.308 53.4133 106.544 53.4 107.018L53.35 110.478C53.3433 110.864 53.5333 111.058 53.92 111.058H81.76C81.8926 111.058 82.0198 111.111 82.1136 111.207C82.2073 111.303 82.26 111.432 82.26 111.567L82.25 115.558C82.25 115.891 82.4167 116.058 82.75 116.058H110.18C110.967 116.058 111.36 115.664 111.36 114.878L111.37 107.228C111.37 106.614 111.06 106.308 110.44 106.308H106.99C106.583 106.308 106.38 106.104 106.38 105.698L106.36 92.3175C106.36 91.8908 106.147 91.6775 105.72 91.6775L102.26 91.7075C101.82 91.7075 101.6 91.4908 101.6 91.0575L101.64 77.9975C101.64 77.5308 101.407 77.2975 100.94 77.2975L97.25 77.3075C96.9167 77.3142 96.75 77.1475 96.75 76.8075V63.4975C96.75 63.348 96.6913 63.2046 96.5866 63.0979C96.4819 62.9913 96.3394 62.9301 96.19 62.9275L92.68 62.9175C92.4988 62.9149 92.3258 62.8421 92.1986 62.7148C92.0714 62.5876 92 62.4161 92 62.2375V49.1275C92 48.6675 91.7733 48.4375 91.32 48.4375L87.8 48.4075C87.4333 48.4075 87.25 48.2242 87.25 47.8575V34.5575C87.25 34.2242 87.0833 34.0575 86.75 34.0575H82.75C82.6174 34.0575 82.4902 34.0048 82.3964 33.9111C82.3027 33.8173 82.25 33.6901 82.25 33.5575V20.0575C82.25 19.6375 82.04 19.4275 81.62 19.4275H78.06C77.9115 19.4275 77.769 19.3685 77.664 19.2635C77.559 19.1585 77.5 19.016 77.5 18.8675V5.9275C77.5 5.3475 77.7933 5.0575 78.38 5.0575H86.5C87 5.0575 87.25 5.3075 87.25 5.8075V9.3775C87.25 9.7575 87.44 9.94416 87.82 9.9375L91.43 9.9175C91.81 9.91083 92 10.1008 92 10.4875V14.0075C92 14.4808 92.2333 14.7142 92.7 14.7075L96.19 14.6875C96.2631 14.6862 96.3356 14.6997 96.4035 14.7272C96.4714 14.7548 96.5332 14.7958 96.5853 14.8479C96.6375 14.9001 96.6789 14.9623 96.7071 15.0309C96.7354 15.0995 96.75 15.1731 96.75 15.2475V23.8775C96.75 24.2575 96.94 24.4475 97.32 24.4475L101 24.4175C101.42 24.4175 101.627 24.6275 101.62 25.0475L101.6 28.3575C101.6 28.8242 101.833 29.0575 102.3 29.0575H105.83C106.217 29.0575 106.407 29.2508 106.4 29.6375L106.35 33.3575C106.35 33.8242 106.58 34.0575 107.04 34.0575H110.95C111.25 34.0575 111.397 34.2075 111.39 34.5075L111.34 38.0975C111.333 38.5708 111.567 38.8075 112.04 38.8075H115.57C115.943 38.8075 116.13 38.9975 116.13 39.3775V47.8075C116.123 48.2208 116.327 48.4275 116.74 48.4275L120.37 48.4175C120.505 48.4175 120.635 48.4712 120.731 48.5669C120.826 48.6625 120.88 48.7922 120.88 48.9275V52.5675C120.88 52.9875 121.09 53.1975 121.51 53.1975L125.26 53.1775C125.673 53.1775 125.88 53.3842 125.88 53.7975V57.5575C125.88 57.9708 126.087 58.1775 126.5 58.1775H130.01C130.43 58.1775 130.64 58.3908 130.64 58.8175L130.62 62.3175C130.62 62.7375 130.83 62.9475 131.25 62.9475L134.8 62.9175C134.891 62.9162 134.982 62.933 135.067 62.9671C135.152 63.0012 135.229 63.0518 135.294 63.116C135.36 63.1802 135.411 63.2567 135.447 63.3411C135.482 63.4255 135.5 63.516 135.5 63.6075V71.9275C135.5 72.3475 135.707 72.5575 136.12 72.5575H139.75C140.09 72.5575 140.26 72.7275 140.26 73.0675L140.24 76.8075C140.24 77.1475 140.41 77.3142 140.75 77.3075H144.75C145.083 77.3008 145.25 77.4675 145.25 77.8075L145.24 81.8075C145.24 82.1408 145.41 82.3075 145.75 82.3075H149.5C149.833 82.3075 150 82.4742 150 82.8075V86.3875C150 86.7675 150.193 86.9575 150.58 86.9575L154.18 86.9275C154.56 86.9208 154.75 87.1075 154.75 87.4875V91.3675C154.75 91.5675 154.85 91.6675 155.05 91.6675L159.55 91.6975C159.683 91.6975 159.75 91.6342 159.75 91.5075V68.0575C159.75 67.7242 159.917 67.5575 160.25 67.5575L163.83 67.5475C164.203 67.5408 164.393 67.3508 164.4 66.9775L164.54 39.2875C164.54 39.1602 164.591 39.0381 164.681 38.9481C164.771 38.8581 164.893 38.8075 165.02 38.8075L168.99 38.8175C169.323 38.8175 169.49 38.6508 169.49 38.3175L169.5 15.0875C169.5 14.7808 169.657 14.6308 169.97 14.6375L173.54 14.7175C174.013 14.7308 174.25 14.4975 174.25 14.0175V0.787501C174.25 0.447501 174.417 0.237499 174.75 0.157499C175.343 0.0174995 175.857 -0.0291666 176.29 0.0175001ZM176.42 43.6475C176.073 43.4542 175.523 43.4542 174.77 43.6475C174.443 43.7275 174.28 43.9342 174.28 44.2675L174.19 71.9075C174.187 72.0907 174.114 72.2658 173.986 72.3962C173.857 72.5267 173.683 72.6024 173.5 72.6075L170.29 72.6975C169.923 72.7108 169.737 72.9008 169.73 73.2675L169.44 96.0475C169.433 96.5008 169.207 96.7242 168.76 96.7175L165.08 96.6675C164.693 96.6608 164.5 96.8475 164.5 97.2275V110.058C164.5 110.724 164.167 111.058 163.5 111.058H155.75C155.083 111.058 154.75 110.724 154.75 110.058V106.808C154.75 106.468 154.583 106.301 154.25 106.308H150.75C150.25 106.308 150 106.058 150 105.558V102.118C150 101.658 149.77 101.427 149.31 101.427L145.79 101.397C145.43 101.397 145.25 101.214 145.25 100.847V92.3675C145.25 92.1818 145.177 92.0038 145.048 91.8725C144.918 91.7412 144.743 91.6675 144.56 91.6675L140.81 91.6775C140.437 91.6842 140.25 91.4975 140.25 91.1175V87.5075C140.25 87.4274 140.234 87.3481 140.204 87.2741C140.173 87.2001 140.128 87.1328 140.071 87.0762C140.015 87.0195 139.947 86.9746 139.873 86.9439C139.799 86.9133 139.72 86.8975 139.64 86.8975L136.18 86.9175C135.727 86.9175 135.5 86.6908 135.5 86.2375V82.7975C135.5 82.6649 135.446 82.5377 135.351 82.4439C135.255 82.3502 135.125 82.2975 134.99 82.2975L131.04 82.3075C130.981 82.3089 130.921 82.298 130.866 82.2753C130.811 82.2527 130.761 82.2189 130.719 82.1759C130.677 82.1329 130.644 82.0816 130.622 82.0252C130.599 81.9688 130.589 81.9083 130.59 81.8475L130.67 77.8975C130.677 77.4975 130.483 77.2975 130.09 77.2975L126.44 77.3075C126.06 77.3075 125.87 77.1208 125.87 76.7475L125.88 68.2475C125.88 67.7875 125.65 67.5575 125.19 67.5575H121.43C121.05 67.5575 120.86 67.3675 120.86 66.9875L120.88 63.5475C120.88 63.3778 120.813 63.215 120.693 63.095C120.573 62.9749 120.41 62.9075 120.24 62.9075L116.76 62.9375C116.353 62.9375 116.147 62.7342 116.14 62.3275L116.12 58.7875C116.12 58.3742 115.913 58.1675 115.5 58.1675L112 58.1775C111.58 58.1842 111.37 57.9775 111.37 57.5575V53.8075C111.37 53.3875 111.16 53.1775 110.74 53.1775L107.01 53.1875C106.583 53.1875 106.37 52.9742 106.37 52.5475V44.1175C106.37 43.7375 106.183 43.5508 105.81 43.5575H102.19C101.817 43.5575 101.63 43.7442 101.63 44.1175L101.62 57.5575C101.62 57.9775 101.83 58.1875 102.25 58.1875H105.75C106.163 58.1875 106.37 58.3942 106.37 58.8075L106.38 71.9975C106.38 72.3708 106.567 72.5575 106.94 72.5575H110.81C111.19 72.5508 111.38 72.7375 111.38 73.1175L111.36 86.2875C111.36 86.7008 111.567 86.9108 111.98 86.9175L115.51 86.9375C115.923 86.9375 116.13 87.1475 116.13 87.5675V100.808C116.13 101.214 116.333 101.418 116.74 101.418L120.24 101.408C120.673 101.408 120.89 101.624 120.89 102.058L120.88 115.498C120.88 115.871 121.067 116.058 121.44 116.058H125.32C125.7 116.058 125.89 116.248 125.89 116.628L125.87 130.048C125.87 130.151 125.829 130.25 125.756 130.323C125.683 130.396 125.583 130.438 125.48 130.438L107.05 130.427C106.59 130.427 106.363 130.197 106.37 129.737L106.39 125.817C106.39 125.714 106.35 125.615 106.279 125.542C106.207 125.469 106.111 125.427 106.01 125.427L78.31 125.438C77.77 125.438 77.5 125.168 77.5 124.628V121.347C77.5 121.001 77.3267 120.828 76.98 120.828H48.34L48.4 116.468C48.4067 116.194 48.2733 116.058 48 116.058H44.06C43.7733 116.058 43.63 116.201 43.63 116.487L43.61 120.158C43.61 120.544 43.8033 120.741 44.19 120.748L48.34 120.828L48.43 124.868C48.4367 125.241 48.6267 125.427 49 125.427H57.44C57.8133 125.427 58 125.618 58 125.998V129.747C58 130.207 58.23 130.438 58.69 130.438H67.19C67.5633 130.438 67.75 130.624 67.75 130.997V134.497C67.75 134.957 67.98 135.188 68.44 135.188L76.92 135.177C77.3133 135.177 77.51 135.374 77.51 135.768L77.5 139.617C77.5 139.984 77.6867 140.171 78.06 140.177L86.67 140.197C87.0567 140.197 87.25 140.394 87.25 140.787V144.307C87.25 144.374 87.263 144.44 87.2883 144.501C87.3136 144.562 87.3505 144.618 87.3971 144.665C87.4437 144.711 87.4989 144.748 87.5595 144.772C87.6201 144.797 87.6848 144.809 87.75 144.807H91.5C91.8333 144.807 92 144.974 92 145.307V149.057C92 149.391 92.1667 149.557 92.5 149.557H101.05C101.417 149.551 101.603 149.734 101.61 150.107L101.63 153.878C101.633 154.059 101.706 154.232 101.836 154.359C101.965 154.486 102.139 154.558 102.32 154.557H110.75C111.163 154.557 111.37 154.764 111.37 155.177V158.737C111.363 159.117 111.55 159.307 111.93 159.307H120.32C120.7 159.307 120.887 159.498 120.88 159.878L120.87 163.557C120.863 163.944 121.053 164.154 121.44 164.188C122.693 164.301 123.773 164.271 124.68 164.097C125.467 163.944 125.86 164.264 125.86 165.057L125.87 172.787C125.877 173.614 125.477 173.941 124.67 173.768C123.65 173.554 122.537 173.541 121.33 173.727C121.01 173.774 120.85 173.957 120.85 174.277L120.89 178.057C120.89 178.484 120.677 178.697 120.25 178.697L112 178.677C111.573 178.671 111.36 178.881 111.36 179.307L111.38 182.617C111.38 183.077 111.15 183.307 110.69 183.307H102.31C101.857 183.307 101.63 183.537 101.63 183.997V187.617C101.63 188.077 101.4 188.307 100.94 188.307H97.25C97.1835 188.308 97.1176 188.321 97.0563 188.346C96.995 188.371 96.9394 188.408 96.8929 188.455C96.8463 188.501 96.8097 188.556 96.7852 188.617C96.7606 188.678 96.7487 188.742 96.75 188.807L96.76 192.548C96.76 192.888 96.5933 193.057 96.26 193.057H87.74C87.4067 193.057 87.24 193.227 87.24 193.567L87.26 197.307C87.26 197.641 87.09 197.807 86.75 197.807H78C77.8674 197.807 77.7402 197.86 77.6464 197.954C77.5527 198.048 77.5 198.175 77.5 198.307V202.117C77.5 202.266 77.441 202.408 77.336 202.513C77.231 202.619 77.0885 202.677 76.94 202.677H68.31C67.9367 202.677 67.75 202.867 67.75 203.247V206.878C67.75 207.251 67.5633 207.438 67.19 207.438L63.69 207.427C63.23 207.427 63 207.657 63 208.117V211.867C63 212.241 62.8133 212.427 62.44 212.427L53.75 212.438C53.51 212.444 53.39 212.567 53.39 212.807L53.38 216.487C53.38 216.867 53.1933 217.057 52.82 217.057L43.85 217.068C43.7033 217.068 43.63 217.137 43.63 217.277L43.6 221.478C43.6 221.698 43.7067 221.807 43.92 221.807H57.5C57.8333 221.807 58 221.641 58 221.307V217.557C58 217.224 58.1667 217.057 58.5 217.057L77 217.047C77.3333 217.047 77.5 216.884 77.5 216.557V213.087C77.5 212.687 77.6967 212.487 78.09 212.487L101.04 212.387C101.433 212.387 101.63 212.188 101.63 211.788L101.62 208.247C101.62 207.787 101.85 207.554 102.31 207.547L120.3 207.327C120.68 207.321 120.867 207.131 120.86 206.758L120.85 203.188C120.85 203.05 120.905 202.917 121.002 202.82C121.1 202.722 121.232 202.667 121.37 202.667L139.66 202.677C140.053 202.677 140.25 202.877 140.25 203.277V250.378C140.25 250.758 140.44 250.948 140.82 250.948L144.82 250.927C145.107 250.927 145.25 250.781 145.25 250.487V241.607C145.25 241.491 145.296 241.379 145.379 241.296C145.461 241.214 145.573 241.167 145.69 241.167L149.43 241.198C149.81 241.204 150 241.014 150 240.628V232.057C150 231.724 150.167 231.557 150.5 231.557H154.25C154.583 231.557 154.75 231.391 154.75 231.057V222.307C154.75 222.172 154.803 222.043 154.896 221.947C154.99 221.851 155.117 221.797 155.25 221.797L159.24 221.818C159.58 221.818 159.75 221.651 159.75 221.318V213.098C159.75 212.624 159.987 212.391 160.46 212.397L168.73 212.508C169.41 212.514 169.727 212.858 169.68 213.538L169.54 215.818C169.525 216.029 169.562 216.241 169.648 216.435C169.734 216.629 169.866 216.799 170.033 216.93C170.2 217.061 170.396 217.15 170.604 217.187C170.813 217.225 171.028 217.212 171.23 217.147C173.017 216.587 174.043 217.037 174.31 218.497C174.443 219.237 174.5 219.974 174.48 220.707C174.477 220.878 174.523 221.046 174.611 221.192C174.7 221.337 174.828 221.453 174.98 221.527C175.347 221.707 175.753 221.531 176.2 220.997C181.433 226.651 188.27 233.601 196.71 241.848C198.983 244.061 200.93 246.674 202.55 249.688C204.143 252.648 205.497 254.804 206.61 256.158C208.87 258.898 211.26 261.687 213.78 264.527C214.413 265.234 215.187 265.551 216.1 265.478C216.379 265.457 216.647 265.364 216.878 265.207C217.109 265.051 217.295 264.836 217.416 264.584C217.538 264.333 217.591 264.054 217.571 263.775C217.551 263.497 217.457 263.228 217.3 262.997C216.047 261.144 215.127 259.334 214.54 257.568C213.453 254.334 212.9 252.694 212.88 252.647C212.213 251.027 211.59 249.388 211.01 247.728C210.45 246.138 209.1 245.217 208.56 243.467C207.953 241.501 207.167 239.511 206.2 237.497C205.667 236.384 205.25 235.221 204.95 234.008C204.643 232.781 204.21 231.567 203.65 230.367C202.32 227.537 202.35 224.477 200.61 221.777C199.157 219.524 198.037 216.974 197.25 214.128C196.86 212.738 195.53 212.288 195.31 210.728C195.123 209.448 194.833 208.188 194.44 206.948C193.61 204.288 193.68 201.368 193.76 198.628C193.767 198.234 193.97 198.024 194.37 197.997C197.997 197.791 201.073 198.571 203.6 200.337C206.59 202.427 210.09 203.177 213.2 205.177C215.87 206.887 218.8 207.757 221.53 209.337C223.47 210.457 225.513 211.527 227.66 212.547C239.927 218.341 250.743 223.651 260.11 228.478C263.03 229.978 265.803 231.314 268.43 232.487C270.86 233.567 272.26 235.407 274.99 236.277C277.57 237.104 279.987 238.388 282.24 240.128C282.432 240.279 282.652 240.395 282.89 240.467C284.483 240.914 285.32 240.787 285.4 240.087C285.54 238.887 285.307 238.018 284.7 237.478C281.2 234.358 278.18 230.947 274.73 227.887C272.143 225.601 269.557 223.334 266.97 221.087C265.197 219.541 263.067 218.031 260.58 216.557C256.26 213.984 253.163 211.718 251.29 209.758C247.29 205.571 243.343 201.511 239.45 197.577C233.23 191.371 227.053 185.334 220.92 179.467C218.81 177.447 216.96 175.118 214.69 173.378C212.72 171.858 212.54 169.588 210.06 168.658C209.725 168.533 209.423 168.333 209.18 168.072C208.937 167.812 208.759 167.499 208.66 167.158C208.033 165.038 207.827 162.647 208.04 159.987C208.055 159.822 208.131 159.668 208.253 159.555C208.374 159.443 208.534 159.379 208.7 159.378C217.867 159.304 226.82 158.884 235.56 158.117C236 158.084 236.333 157.881 236.56 157.507L237.28 156.317C237.493 155.971 237.803 155.774 238.21 155.727C253.31 154.027 268.54 154.497 283.56 154.387C284.727 154.374 285.3 153.784 285.28 152.617L285.25 151.457C285.23 150.324 284.657 149.721 283.53 149.647C281.677 149.534 280.733 149.117 280.7 148.397C280.66 147.491 280.597 146.624 280.51 145.798C280.477 145.431 280.277 145.247 279.91 145.247C276.75 145.257 273.6 144.877 270.48 144.847C263.92 144.787 257.137 144.784 250.13 144.837C244.43 144.877 239.05 144.337 233.4 143.837C233.083 143.809 232.787 143.667 232.566 143.437C232.346 143.207 232.216 142.906 232.2 142.587C232.18 142.147 232.02 141.784 231.72 141.497C231.5 141.291 231.153 141.168 230.68 141.128C223.373 140.548 216.063 140.178 208.75 140.018C208.257 140.011 208.063 139.681 208.17 139.027L208.98 131.357C209.02 130.984 209.193 130.687 209.5 130.467L210.97 129.447C211.283 129.234 211.49 128.944 211.59 128.577C212.43 125.657 213.2 121.438 215.85 119.628C216.137 119.434 216.347 119.178 216.48 118.858L218.85 113.298C220.55 111.238 222.113 109.054 223.54 106.748C224.35 105.448 225.67 105.037 226.36 103.487C227.4 101.137 228.14 98.7275 229.73 96.6575C232.05 93.6375 232.26 89.7175 235.22 87.1275C237.39 85.2375 236.78 82.7575 239.97 81.8375C240.405 81.7125 240.794 81.4645 241.091 81.1238C241.387 80.783 241.578 80.364 241.64 79.9175C241.86 78.3308 242.107 76.6675 242.38 74.9275C242.85 71.8975 246.32 73.0275 246.5 69.5475L247 63.6575C247.027 63.2975 247.223 63.1108 247.59 63.0975L249.57 63.0475C250.011 63.0365 250.435 62.8765 250.774 62.5935C251.113 62.3104 251.348 61.9208 251.44 61.4875L251.95 59.0075C252.043 58.5408 252.323 58.2642 252.79 58.1775L254.81 57.8075C255.563 57.6675 255.993 57.2175 256.1 56.4575C256.4 54.2775 255.383 53.2308 253.05 53.3175C252.07 53.3508 251.563 53.8575 251.53 54.8375L251.46 57.0875C251.452 57.3477 251.346 57.5951 251.162 57.7792C250.978 57.9632 250.73 58.07 250.47 58.0775L247.92 58.1375C247.745 58.1422 247.572 58.1829 247.413 58.257C247.254 58.3311 247.112 58.4371 246.996 58.5684C246.88 58.6996 246.792 58.8534 246.737 59.0201C246.683 59.1868 246.663 59.3629 246.68 59.5375C246.78 60.5308 246.737 61.4375 246.55 62.2575C246.463 62.6242 246.23 62.8175 245.85 62.8375L242.5 63.0175C242.153 63.6708 241.887 64.6942 241.7 66.0875C241.645 66.5204 241.423 66.9145 241.081 67.1854C240.738 67.4564 240.304 67.5828 239.87 67.5375C239.083 67.4575 238.387 67.6175 237.78 68.0175C237.453 68.2308 237.267 68.5308 237.22 68.9175C237.113 69.8642 236.847 70.7475 236.42 71.5675C236.26 71.8875 236.01 72.1008 235.67 72.2075C233.857 72.8142 232.63 73.9475 231.99 75.6075C231.823 76.0275 231.56 76.3742 231.2 76.6475C229.72 77.7575 228.28 78.5375 227.22 80.1375C226.547 81.1508 225.673 81.9742 224.6 82.6075C223.47 83.2775 222.78 84.3175 221.98 85.3275C220.69 86.9775 218.92 87.6775 217.7 89.4175C216.39 91.3075 214.36 92.2175 213.08 94.1775C211.5 96.6075 208.99 97.4975 207.52 100.147C207.259 100.611 206.866 100.986 206.39 101.228C204.803 102.014 203.65 103.151 202.93 104.638C202.75 105.018 202.467 105.284 202.08 105.438C199.553 106.471 196.993 106.764 194.4 106.317C194.073 106.264 193.9 106.074 193.88 105.748L192.71 88.2175C192.683 87.8242 192.5 87.5342 192.16 87.3475C191.72 87.1008 191.243 86.9808 190.73 86.9875C190.402 86.993 190.084 86.8701 189.843 86.6444C189.603 86.4188 189.458 86.1081 189.44 85.7775C189.113 80.0175 188.88 74.5175 188.74 69.2775C188.6 64.2475 187.49 59.1875 188.29 54.1275C188.35 53.7408 188.183 53.5342 187.79 53.5075C186.063 53.4075 184.78 53.0742 183.94 52.5075L183.98 25.1075C183.98 24.6008 183.727 24.3408 183.22 24.3275L179.5 24.2575C179.007 24.2442 178.757 24.4875 178.75 24.9875C178.723 30.9408 178.697 36.8842 178.67 42.8175C178.663 43.4375 177.913 43.7142 176.42 43.6475ZM101.637 39.186C101.637 39.1374 101.628 39.0893 101.609 39.0443C101.591 38.9994 101.564 38.9585 101.53 38.924C101.495 38.8895 101.455 38.8621 101.41 38.8434C101.365 38.8246 101.317 38.8149 101.268 38.8147L97.1283 38.8003C97.0797 38.8001 97.0316 38.8095 96.9866 38.828C96.9417 38.8464 96.9008 38.8735 96.8663 38.9078C96.8318 38.942 96.8044 38.9827 96.7857 39.0275C96.7669 39.0723 96.7572 39.1204 96.757 39.169L96.743 43.169C96.7428 43.2176 96.7522 43.2657 96.7707 43.3107C96.7891 43.3556 96.8162 43.3965 96.8504 43.431C96.8847 43.4655 96.9254 43.4929 96.9702 43.5116C97.015 43.5304 97.0631 43.5401 97.1117 43.5403L101.252 43.5547C101.3 43.5549 101.348 43.5455 101.393 43.527C101.438 43.5086 101.479 43.4815 101.514 43.4473C101.548 43.413 101.576 43.3723 101.594 43.3275C101.613 43.2827 101.623 43.2346 101.623 43.186L101.637 39.186ZM140.248 251.292C140.248 251.243 140.238 251.195 140.22 251.15C140.201 251.105 140.174 251.064 140.14 251.03C140.106 250.995 140.065 250.968 140.02 250.949C139.975 250.931 139.927 250.921 139.878 250.921L135.878 250.914C135.83 250.914 135.782 250.923 135.737 250.942C135.692 250.96 135.651 250.988 135.617 251.022C135.582 251.056 135.555 251.097 135.536 251.142C135.518 251.187 135.508 251.235 135.508 251.283L135.492 260.183C135.492 260.232 135.502 260.28 135.52 260.325C135.539 260.37 135.566 260.411 135.6 260.445C135.634 260.48 135.675 260.507 135.72 260.526C135.765 260.544 135.813 260.554 135.862 260.554L139.862 260.561C139.91 260.561 139.958 260.552 140.003 260.533C140.048 260.515 140.089 260.487 140.123 260.453C140.158 260.419 140.185 260.378 140.204 260.333C140.222 260.288 140.232 260.24 140.232 260.192L140.248 251.292Z" fill="white"/>
</svg>
